<?xml version="1.0" encoding="UTF-8" standalone="no"?>
<!-- Created with Inkscape (http://www.inkscape.org/) -->

<svg
   xmlns:dc="http://purl.org/dc/elements/1.1/"
   xmlns:cc="http://creativecommons.org/ns#"
   xmlns:rdf="http://www.w3.org/1999/02/22-rdf-syntax-ns#"
   xmlns:svg="http://www.w3.org/2000/svg"
   xmlns="http://www.w3.org/2000/svg"
   xmlns:sodipodi="http://sodipodi.sourceforge.net/DTD/sodipodi-0.dtd"
   xmlns:inkscape="http://www.inkscape.org/namespaces/inkscape"
   width="210mm"
   height="297mm"
   viewBox="0 0 210 297"
   version="1.1"
   id="svg8"
   inkscape:version="0.92.4 (5da689c313, 2019-01-14)"
   sodipodi:docname="simplesolve.svg">
  <defs
     id="defs2" />
  <sodipodi:namedview
     id="base"
     pagecolor="#ffffff"
     bordercolor="#666666"
     borderopacity="1.0"
     inkscape:pageopacity="0.0"
     inkscape:pageshadow="2"
     inkscape:zoom="0.56173882"
     inkscape:cx="15.070802"
     inkscape:cy="621.25002"
     inkscape:document-units="mm"
     inkscape:current-layer="layer1"
     showgrid="false"
     inkscape:window-width="1366"
     inkscape:window-height="705"
     inkscape:window-x="-8"
     inkscape:window-y="32"
     inkscape:window-maximized="1" />
  <metadata
     id="metadata5">
    <rdf:RDF>
      <cc:Work
         rdf:about="">
        <dc:format>image/svg+xml</dc:format>
        <dc:type
           rdf:resource="http://purl.org/dc/dcmitype/StillImage" />
        <dc:title />
      </cc:Work>
    </rdf:RDF>
  </metadata>
  <g
     inkscape:label="Layer 1"
     inkscape:groupmode="layer"
     id="layer1">
    <path
       style="fill:none;fill-rule:evenodd;stroke:#000000;stroke-width:0.26458332px;stroke-linecap:butt;stroke-linejoin:miter;stroke-opacity:1"
       d="M 54,164 H 68.017857 L 80,193 H 50 Z"
       id="path4518"
       inkscape:connector-curvature="0"
       fsextrude="20"
       fsposition="0,0,0"
       fsshowaxis="true"
       fsangle="100"
       fsaxis="0,0,0"
       sodipodi:nodetypes="ccccc" />
    <path
       style="fill:none;fill-rule:evenodd;stroke:#000000;stroke-width:0.26458332px;stroke-linecap:butt;stroke-linejoin:miter;stroke-opacity:1"
       d="m 127,167 h 30 l 3,35 h -26 z"
       id="path4520"
       inkscape:connector-curvature="0"
       sodipodi:nodetypes="ccccc"
       fsextrude="6"
       fsshowaxis="true"
       fsposition="0,0,0" />
    <path
       style="opacity:1;vector-effect:none;fill:none;fill-opacity:1;stroke:#000000;stroke-width:0.26458332;stroke-linecap:butt;stroke-linejoin:miter;stroke-miterlimit:4;stroke-dasharray:none;stroke-dashoffset:0;stroke-opacity:1"
       d="m 86.725059,190.79454 a 5.291666,12.095241 0 0 1 -5.291666,12.09524 5.291666,12.095241 0 0 1 -5.291666,-12.09524 5.291666,12.095241 0 0 1 5.291666,-12.09524 5.291666,12.095241 0 0 1 5.291666,12.09524 z"
       id="path4522"
       inkscape:connector-curvature="0"
       fsjoint="1" />
    <path
       style="opacity:1;vector-effect:none;fill:none;fill-opacity:1;stroke:#000000;stroke-width:0.43422148;stroke-linecap:butt;stroke-linejoin:miter;stroke-miterlimit:4;stroke-dasharray:none;stroke-dashoffset:0;stroke-opacity:1"
       d="m 142.65374,167.73214 a 14.252469,12.095241 0 0 1 -14.25245,12.09524 14.252469,12.095241 0 0 1 -14.25248,-12.09524 14.252469,12.095241 0 0 1 14.25248,-12.09524 14.252469,12.095241 0 0 1 14.25245,12.09524 z"
       id="path4522-9"
       inkscape:connector-curvature="0"
       fsjoint="1" />
    <path
       style="opacity:1;vector-effect:none;fill:none;fill-opacity:1;stroke:#000000;stroke-width:0.15177572;stroke-linecap:butt;stroke-linejoin:miter;stroke-miterlimit:4;stroke-dasharray:none;stroke-dashoffset:0;stroke-opacity:1"
       d="m 160.76806,166.52899 a 4.2670261,4.9358433 0 0 1 -4.26702,4.93584 4.2670261,4.9358433 0 0 1 -4.26703,-4.93584 4.2670261,4.9358433 0 0 1 4.26703,-4.93584 4.2670261,4.9358433 0 0 1 4.26702,4.93584 z"
       id="path4522-9-4"
       inkscape:connector-curvature="0"
       fsjoint="2" />
    <path
       style="opacity:1;vector-effect:none;fill:none;fill-opacity:1;stroke:#000000;stroke-width:0.15177572;stroke-linecap:butt;stroke-linejoin:miter;stroke-miterlimit:4;stroke-dasharray:none;stroke-dashoffset:0;stroke-opacity:1"
       d="m 55.60687,193.3783 a 4.2670262,4.9358434 0 0 1 -4.267021,4.93584 4.2670262,4.9358434 0 0 1 -4.26703,-4.93584 4.2670262,4.9358434 0 0 1 4.26703,-4.93584 4.2670262,4.9358434 0 0 1 4.267021,4.93584 z"
       id="path4522-9-4-4"
       inkscape:connector-curvature="0"
       fsjoint="2" />
  </g>
</svg>
